<mxfile host="app.diagrams.net" agent="Mozilla/5.0 (Windows NT 10.0; Win64; x64) AppleWebKit/537.36 (KHTML, like Gecko) Chrome/121.0.0.0 Safari/537.36" version="24.7.17">
  <diagram name="第 1 页" id="F0U17MeTJ9vAIsxRNDrd">
    <mxGraphModel dx="1355" dy="555" grid="1" gridSize="10" guides="1" tooltips="1" connect="1" arrows="1" fold="1" page="1" pageScale="1" pageWidth="827" pageHeight="1169" math="0" shadow="0">
      <root>
        <mxCell id="0" />
        <mxCell id="1" parent="0" />
        <mxCell id="fdqubBedCS-_cA7VgkMp-2" value="/planning/scenario_planning/trajectory" style="rounded=1;whiteSpace=wrap;html=1;" vertex="1" parent="1">
          <mxGeometry x="272.5" y="260" width="245" height="60" as="geometry" />
        </mxCell>
        <mxCell id="fdqubBedCS-_cA7VgkMp-3" value="control.launch.xml&lt;div&gt;controller #node&lt;/div&gt;" style="rounded=0;whiteSpace=wrap;html=1;" vertex="1" parent="1">
          <mxGeometry x="300" y="160" width="190" height="60" as="geometry" />
        </mxCell>
        <mxCell id="fdqubBedCS-_cA7VgkMp-4" value="" style="endArrow=classic;html=1;rounded=0;exitX=0.5;exitY=0;exitDx=0;exitDy=0;entryX=0.5;entryY=1;entryDx=0;entryDy=0;" edge="1" parent="1" source="fdqubBedCS-_cA7VgkMp-2" target="fdqubBedCS-_cA7VgkMp-3">
          <mxGeometry width="50" height="50" relative="1" as="geometry">
            <mxPoint x="380" y="420" as="sourcePoint" />
            <mxPoint x="430" y="370" as="targetPoint" />
          </mxGeometry>
        </mxCell>
        <mxCell id="fdqubBedCS-_cA7VgkMp-5" value="/planning/scenario_planning/velocity_smoother/trajectory" style="rounded=1;whiteSpace=wrap;html=1;" vertex="1" parent="1">
          <mxGeometry x="220" y="460" width="350" height="60" as="geometry" />
        </mxCell>
        <mxCell id="fdqubBedCS-_cA7VgkMp-7" value="planning.launch.xml" style="rounded=0;whiteSpace=wrap;html=1;" vertex="1" parent="1">
          <mxGeometry x="282.5" y="360" width="225" height="60" as="geometry" />
        </mxCell>
        <mxCell id="fdqubBedCS-_cA7VgkMp-8" value="scenario_planning.launch.xml" style="rounded=0;whiteSpace=wrap;html=1;" vertex="1" parent="1">
          <mxGeometry x="272.5" y="555" width="255" height="60" as="geometry" />
        </mxCell>
        <mxCell id="fdqubBedCS-_cA7VgkMp-9" value="&lt;span style=&quot;font-size: 12px;&quot;&gt;/planning/scenario_planning/scenario_selector/trajectory&lt;/span&gt;" style="rounded=1;whiteSpace=wrap;html=1;" vertex="1" parent="1">
          <mxGeometry x="225" y="660" width="350" height="60" as="geometry" />
        </mxCell>
        <mxCell id="fdqubBedCS-_cA7VgkMp-10" value="scenario_planning.launch.xml" style="rounded=0;whiteSpace=wrap;html=1;" vertex="1" parent="1">
          <mxGeometry x="827" y="160" width="210" height="60" as="geometry" />
        </mxCell>
        <mxCell id="fdqubBedCS-_cA7VgkMp-11" value="&lt;span style=&quot;font-size: 12px;&quot;&gt;/planning/scenario_planning/lane_driving/trajectory&lt;/span&gt;" style="rounded=1;whiteSpace=wrap;html=1;" vertex="1" parent="1">
          <mxGeometry x="740" y="270" width="310" height="60" as="geometry" />
        </mxCell>
        <mxCell id="fdqubBedCS-_cA7VgkMp-12" value="&lt;span style=&quot;font-size: 12px;&quot;&gt;/planning/scenario_planning/parking/trajectory&lt;/span&gt;" style="rounded=1;whiteSpace=wrap;html=1;" vertex="1" parent="1">
          <mxGeometry x="800" y="360" width="300" height="60" as="geometry" />
        </mxCell>
      </root>
    </mxGraphModel>
  </diagram>
</mxfile>
